<svg width="603" height="664" viewBox="0 0 603 664" fill="none" xmlns="http://www.w3.org/2000/svg">
<path fill-rule="evenodd" clip-rule="evenodd" d="M213.761 1020.43C211.292 880.104 158.221 584.296 150.597 508.109C142.975 431.922 170.09 406.12 196.089 418.69C222.088 431.264 229.866 607.046 229.866 607.046C229.866 607.046 231.657 641.45 238.442 680.627C262.973 822.256 245.755 1022.45 245.755 1022.45C245.755 1022.45 241 1035.49 226.609 1033.75C212.22 1032.01 213.761 1020.43 213.761 1020.43Z" fill="#FFC999"/>
<path fill-rule="evenodd" clip-rule="evenodd" d="M61.5734 1014.31C64.0423 873.978 117.113 578.17 124.735 501.983C132.36 425.797 105.242 399.994 79.2458 412.564C53.2468 425.138 45.4662 600.92 45.4662 600.92C45.4662 600.92 43.6777 635.324 36.8922 674.501C12.3617 816.133 29.5796 1016.32 29.5796 1016.32C29.5796 1016.32 34.3346 1029.36 48.7258 1027.63C63.1117 1025.89 61.5734 1014.31 61.5734 1014.31Z" fill="#FFC999"/>
<path fill-rule="evenodd" clip-rule="evenodd" d="M77.3134 382.699L79.0454 372.197C79.0454 372.197 125.828 372.237 181.653 372.581C182.035 377.939 183.568 384.45 183.568 384.45C183.568 384.45 143.232 397.978 77.3134 382.699Z" fill="#002AB2"/>
<path fill-rule="evenodd" clip-rule="evenodd" d="M190.746 307.61L186.817 317.649C186.817 317.649 185.738 367.248 185.738 371.178C132.135 379.854 77.8534 370.497 77.8534 370.497L78.117 352.139L73.752 295.824L190.746 307.61Z" fill="white"/>
<path d="M189.933 306.856C190.109 306.407 190.615 306.186 191.064 306.361C191.463 306.517 191.682 306.935 191.603 307.341L191.559 307.492L187.684 317.389L186.121 370.261C186.107 370.943 186.1 371.422 186.1 371.686C186.1 372.106 185.8 372.467 185.387 372.544C154.466 378.281 122.825 377.964 93.7192 373.983C89.5683 373.416 85.8002 372.811 82.4597 372.203L81.3621 372C80.3094 371.803 79.3654 371.617 78.5346 371.446L76.894 371.095C76.5319 371.011 76.2683 370.71 76.2238 370.353L76.2185 370.196L77.2459 351.652C77.2725 351.171 77.6843 350.802 78.1655 350.829C78.5933 350.853 78.932 351.181 78.9833 351.591L78.9886 351.749L78.0008 369.55L78.4081 369.637C79.0284 369.767 79.7216 369.908 80.4854 370.056L81.6839 370.285C85.2617 370.956 89.3729 371.627 93.9557 372.254C122.262 376.125 152.987 376.512 183.064 371.191L184.361 370.954L184.503 365.122L185.22 340.637L185.945 317.186L186.004 316.896L189.933 306.856Z" fill="black"/>
<path fill-rule="evenodd" clip-rule="evenodd" d="M244.101 122.563C244.101 122.563 270.504 118.733 277.48 146.641C303.062 155.944 296.086 183.85 296.086 183.85C296.086 183.85 308.933 205.774 283.41 217.005C281.366 239.468 255.844 235.382 255.844 235.382C255.844 235.382 249.717 252.74 230.318 245.594C209.389 261.874 184.452 241.993 184.452 241.993C184.452 241.993 161.196 251.296 151.896 241.993C130.964 248.97 107.706 223.387 107.706 223.387C107.706 223.387 94.6404 226.706 85.3376 205.774C61.0384 209.545 34.4908 178.576 56.7488 149.618C42.1477 126.505 58.79 112.862 58.79 112.862C58.79 112.862 54.1965 59.7692 90.9532 52.6233C109.839 24.0344 150.681 47.0077 150.681 47.0077C150.681 47.0077 177.736 41.3922 187.437 64.8765C217.669 69.5265 216.252 86.1447 218.579 100.1C245.632 101.631 244.101 122.563 244.101 122.563Z" fill="black"/>
<path fill-rule="evenodd" clip-rule="evenodd" d="M160.211 96.6384C139.01 100.358 132.569 84.318 132.569 84.318C132.569 84.318 123.823 61.7266 121.583 75.5961C120.391 82.9679 108.996 73.1864 103.757 81.045C100.231 86.3324 109.047 93.1475 97.59 107.246C90.9524 115.413 117.132 121.933 100.981 136.988C100.981 136.988 112.465 155.365 92.7382 161.36L88.3759 182.757L133.838 182.687L132.375 158.047C163.006 158.047 164.501 115.946 160.211 96.6384Z" fill="#FFC999"/>
<path d="M121.13 119.048C121.661 118.517 122.522 118.517 123.052 119.048L123.33 119.303C123.457 119.413 123.619 119.547 123.813 119.701C124.477 120.226 125.258 120.754 126.145 121.247C129.153 122.92 132.586 123.786 136.365 123.42C137.112 123.347 137.777 123.894 137.849 124.642C137.922 125.389 137.374 126.053 136.627 126.126C132.255 126.55 128.285 125.549 124.824 123.623C123.068 122.647 121.82 121.661 121.13 120.971C120.599 120.44 120.599 119.579 121.13 119.048Z" fill="#F5222D"/>
<path d="M137.856 97.7964C138.393 97.8346 138.811 98.2585 138.858 98.7782L138.86 98.9667C138.834 99.6854 138.975 100.89 139.449 102.528C140.212 105.166 141.637 108.128 143.893 111.36C144.248 111.868 144.105 112.57 143.58 112.899L142.173 113.773C140.351 114.893 138.744 115.834 137.348 116.609L136.834 116.893C136.444 117.106 136.089 117.296 135.767 117.465L134.668 118.02C134.641 118.033 134.617 118.044 134.597 118.053C134.053 118.304 133.409 118.067 133.159 117.523C132.908 116.98 133.145 116.336 133.688 116.085L134.192 115.838L135.085 115.374C135.306 115.256 135.543 115.129 135.794 114.991C137.089 114.283 138.589 113.416 140.297 112.379L141.474 111.655L141.205 111.244C139.474 108.558 138.281 106.035 137.542 103.708L137.367 103.13C136.877 101.437 136.693 100.098 136.689 99.1583L136.698 98.8005C136.74 98.2034 137.259 97.7538 137.856 97.7964Z" fill="#DD936F"/>
<path fill-rule="evenodd" clip-rule="evenodd" d="M142.217 352.288C142.217 352.288 200.326 367.698 226.833 349.224C255.645 329.145 220.362 252.737 211.135 232.83C203.214 215.736 185.945 204.661 170.228 202.041C154.764 199.465 142.946 198.548 142.946 198.548L139.55 185.31C139.055 183.382 137.317 182.032 135.327 182.032H88.9986C86.8282 182.032 84.9913 183.629 84.682 185.775L82.8935 198.314C82.8935 198.314 43.8964 196.851 25.4387 213.942C7.76092 230.313 12.8682 267.053 27.6978 301.062C42.5248 335.072 55.0146 362.061 79.8087 364.541C125.645 369.124 197.295 329.217 197.295 329.217C197.295 329.217 209.516 322.671 220.868 324.417C218.248 308.7 209.516 297.35 184.197 303.899L93.8342 322.671" fill="white"/>
<path fill-rule="evenodd" clip-rule="evenodd" d="M197.73 276.615C197.73 276.615 202.097 291.02 193.039 302.698L194.021 317.758L129.848 352.466C129.848 352.466 199.69 368.568 227.599 352.288C248.531 340.078 242.514 305.349 226.45 270.351C226.45 270.351 213.815 266.524 197.73 276.615Z" fill="#FFC999"/>
<path fill-rule="evenodd" clip-rule="evenodd" d="M72.0055 280.544L89.9038 319.396L161.489 299.962C182.881 294.285 205.588 302.372 211.263 319.396C200.787 320.706 180.923 325.289 180.923 325.289C180.923 325.289 112.17 368.18 77.4624 366.545C52.5715 365.37 42.8868 336.38 28.0572 302.372C28.0572 302.372 37.083 283.164 72.0055 280.544Z" fill="#FFC999"/>
<path d="M188.563 239.072C189.045 239.072 189.436 239.463 189.436 239.945L189.422 241.161L189.395 242.366C189.378 242.993 189.355 243.655 189.326 244.347C189.212 247.094 189.022 249.841 188.739 252.464L188.605 253.604L189.012 254.024C191.759 256.932 193.95 260.022 195.618 263.273L196.025 264.089C200.947 274.29 200.625 285.158 197.139 295.415C196.579 297.06 195.98 298.546 195.379 299.848L195.074 300.494L194.564 301.49C194.328 301.91 193.796 302.06 193.375 301.824C192.955 301.588 192.806 301.056 193.041 300.636L193.291 300.163C193.428 299.893 193.598 299.543 193.794 299.118C194.37 297.869 194.947 296.439 195.486 294.854C198.838 284.991 199.147 274.576 194.453 264.847C192.692 261.198 190.25 257.747 187.071 254.527C186.883 254.337 186.793 254.071 186.826 253.806C187.204 250.777 187.447 247.526 187.583 244.274L187.65 242.318L187.689 240.221L187.691 239.945C187.691 239.463 188.081 239.072 188.563 239.072Z" fill="black"/>
<path d="M124.316 198.095C124.798 198.095 125.189 198.486 125.189 198.968C125.189 199.396 124.88 199.753 124.473 199.826L124.316 199.841H82.6003C82.1183 199.841 81.7276 199.45 81.7276 198.968C81.7276 198.539 82.0363 198.183 82.4434 198.109L82.6003 198.095H124.316Z" fill="black"/>
<path d="M143.922 198.22C144.062 197.675 144.618 197.347 145.163 197.487C145.654 197.613 145.969 198.076 145.924 198.564L145.896 198.728L132.145 252.205C131.959 252.929 131.099 253.196 130.537 252.76L130.413 252.647L80.4297 199.17C80.0453 198.759 80.0671 198.114 80.4783 197.729C80.8439 197.388 81.3942 197.367 81.7819 197.655L81.919 197.778L130.632 249.898L143.922 198.22Z" fill="black"/>
<path fill-rule="evenodd" clip-rule="evenodd" d="M145.632 257.906C150.258 265.708 148.171 275.492 140.977 279.76C133.777 284.029 124.192 281.162 119.566 273.362C114.94 265.56 117.024 255.776 124.221 251.508C131.421 247.24 141.003 250.104 145.632 257.906Z" fill="#464646"/>
<path fill-rule="evenodd" clip-rule="evenodd" d="M147.292 257.868C151.92 265.67 149.833 275.454 142.636 279.72C135.439 283.988 125.854 281.123 121.228 273.321C116.603 265.519 118.687 255.738 125.884 251.47C133.081 247.201 142.666 250.066 147.292 257.868Z" fill="black"/>
<path fill-rule="evenodd" clip-rule="evenodd" d="M144.356 259.227C147.946 265.283 146.327 272.881 140.738 276.195C135.152 279.508 127.711 277.284 124.12 271.227C120.527 265.168 122.143 257.573 127.732 254.259C133.321 250.943 140.762 253.17 144.356 259.227Z" fill="#C961DE"/>
<path d="M111.896 152.934C112.182 152.408 112.84 152.213 113.366 152.499C119.295 155.725 125.438 157.345 131.603 157.429C132.202 157.437 132.68 157.929 132.672 158.528C132.664 159.126 132.172 159.605 131.574 159.597C125.055 159.508 118.567 157.796 112.33 154.404C111.805 154.118 111.61 153.459 111.896 152.934Z" fill="#DD936F"/>
<path fill-rule="evenodd" clip-rule="evenodd" d="M121.414 310.681C121.414 310.681 95.2749 288.781 79.2108 289.929C63.9294 291.021 54.7637 303.463 57.3805 310.447C57.3805 310.447 53.8923 316.56 59.5644 318.524C58.8006 322.999 65.2391 322.671 65.2391 322.671C65.2391 322.671 64.1499 325.508 68.7327 326.162C73.3155 326.818 78.3771 317.429 90.2752 319.36L121.414 310.681Z" fill="#FFC999"/>
<path d="M78.5564 288.275C71.3984 288.786 63.7168 293.885 58.1982 300.697C55.8821 303.555 54.2863 306.371 53.837 308.433L53.7833 308.71C53.4898 310.437 54.0819 311.673 55.3513 312.078L55.431 312.099L55.3322 312.329C54.9741 313.206 54.801 314.096 54.8916 314.981L54.935 315.293C55.171 316.627 56.029 317.725 57.5117 318.495L57.8425 318.655L57.842 318.729C57.8574 320.861 59.2942 322.213 61.5101 322.821L61.979 322.937C62.4474 323.04 62.9126 323.107 63.3581 323.146L63.4814 323.153L63.4897 323.241C63.5413 323.644 63.6719 324.052 63.9032 324.452C64.57 325.604 65.9257 326.364 68.0053 326.661C69.1633 326.827 70.3088 326.535 71.6674 325.832L72.0817 325.609C72.9249 325.137 76.1422 323.013 76.1803 322.989C80.6691 320.154 84.4699 319.035 89.5271 319.856C89.6752 319.88 89.8267 319.873 89.9719 319.836L122.31 311.48C123.171 311.257 123.412 310.15 122.722 309.589L121.557 308.668L120.372 307.756C119.749 307.282 119.08 306.781 118.369 306.258C114.987 303.767 111.35 301.276 107.597 298.95C103.264 296.265 99.0548 293.975 95.0668 292.201C88.9628 289.485 83.602 288.074 79.1569 288.242L78.5564 288.275ZM94.1857 294.181C98.0749 295.912 102.201 298.156 106.455 300.793C110.155 303.086 113.745 305.545 117.084 308.003L118.642 309.165L119.644 309.928L89.6426 317.681L89.8745 317.717C84.4357 316.834 80.2522 317.97 75.5853 320.807L75.0228 321.156C74.9222 321.22 71.7846 323.291 71.0236 323.717C69.8561 324.37 69.0198 324.616 68.3119 324.515C66.8379 324.305 66.075 323.877 65.7793 323.366C65.6568 323.155 65.6187 322.923 65.6395 322.699L65.6765 322.486C65.9374 321.806 65.4691 321.086 64.762 321.019L64.5609 321.016C63.8459 321.036 62.935 320.964 62.0838 320.731C60.5094 320.299 59.8197 319.54 60.0609 318.133C60.1505 317.61 59.8485 317.099 59.3473 316.926C57.7863 316.385 57.1402 315.66 57.048 314.76C56.9826 314.121 57.1932 313.364 57.6002 312.592C57.8223 312.171 58.0426 311.849 58.1742 311.686C58.8254 310.879 58.0796 309.706 57.0722 309.953L56.6818 310.04C55.8127 310.203 55.7243 309.954 55.9551 308.894C56.3192 307.223 57.7605 304.681 59.8825 302.061C65.0589 295.672 72.2503 290.899 78.711 290.437C82.8474 290.141 88.1001 291.474 94.1857 294.181Z" fill="#DD936F"/>
<path d="M78.4215 295.838C79.0155 295.764 79.5572 296.185 79.6314 296.779C79.7057 297.373 79.2843 297.915 78.6903 297.989C74.5675 298.505 70.1009 300.857 65.6057 304.469C63.7847 305.932 62.0854 307.502 60.5561 309.071L59.7999 309.863L58.8842 310.87C58.7762 310.993 58.697 311.085 58.6478 311.144C58.2631 311.602 57.5794 311.662 57.1208 311.277C56.6623 310.893 56.6026 310.209 56.9873 309.75L57.5245 309.137C57.9526 308.66 58.4475 308.129 59.0035 307.558C60.5906 305.93 62.3534 304.301 64.248 302.779C69.0279 298.938 73.8228 296.413 78.4215 295.838Z" fill="#DD936F"/>
<path d="M85.6308 301.69C86.229 301.671 86.7302 302.139 86.7501 302.738C86.7699 303.336 86.3011 303.837 85.7028 303.857C85.3408 303.869 84.9754 303.893 84.6068 303.927C79.491 304.412 73.9301 307.033 68.3158 311.112C66.1032 312.719 64.0365 314.443 62.1747 316.166C61.6865 316.618 61.2391 317.046 60.8358 317.442L59.9201 318.367C59.8919 318.397 59.8677 318.423 59.8475 318.445C59.4394 318.882 58.7536 318.907 58.3157 318.498C57.8778 318.09 57.8537 317.404 58.2618 316.967L58.911 316.299L59.7486 315.476C60.0474 315.188 60.3655 314.887 60.7021 314.575C62.6234 312.797 64.7549 311.019 67.0418 309.358C72.9416 305.072 78.8279 302.297 84.4024 301.769C84.8147 301.73 85.2242 301.704 85.6308 301.69Z" fill="#DD936F"/>
<path d="M85.5972 308.582C86.1946 308.544 86.7097 308.998 86.7477 309.595C86.7857 310.192 86.3322 310.707 85.7348 310.745C83.8847 310.863 81.5859 311.658 78.9595 313.033C77.1086 314.002 75.1427 315.234 73.1124 316.667C71.2367 317.991 69.41 319.411 67.7074 320.832L66.8588 321.549L65.5314 322.715C65.0904 323.12 64.4048 323.091 64.0001 322.65C63.5953 322.209 63.6247 321.523 64.0657 321.118L64.6727 320.576L65.448 319.903C65.7227 319.668 66.0134 319.422 66.3188 319.167C68.0634 317.712 69.9351 316.256 71.8625 314.896C73.9655 313.412 76.01 312.131 77.9539 311.113C80.8256 309.609 83.39 308.722 85.5972 308.582Z" fill="#DD936F"/>
<path d="M61.6326 252.177C62.0363 252.034 62.4755 252.205 62.6816 252.564L62.7474 252.707L72.3918 279.814C72.5881 280.366 72.1961 280.95 71.6111 280.978L71.109 281.01C70.6904 281.04 70.2037 281.082 69.6545 281.136C68.0815 281.292 66.3271 281.522 64.437 281.84C59.0383 282.747 53.6411 284.174 48.6127 286.229C39.4153 289.988 32.5221 295.41 28.8371 302.761C28.6211 303.192 28.0966 303.366 27.6658 303.15C27.2349 302.934 27.0607 302.41 27.2767 301.979C31.1774 294.198 38.3976 288.518 47.9523 284.613C53.1119 282.504 58.6305 281.046 64.1477 280.119C65.7564 279.848 67.2698 279.64 68.6617 279.486L69.8941 279.36L70.3628 279.317L61.1029 253.292C60.9593 252.889 61.1307 252.449 61.4895 252.243L61.6326 252.177Z" fill="black"/>
<path d="M205.816 271.767C212.539 268.864 219.678 267.679 226.728 269.215C227.199 269.318 227.497 269.783 227.395 270.254C227.292 270.725 226.827 271.023 226.356 270.921C219.711 269.472 212.924 270.599 206.508 273.37C205.208 273.931 204.011 274.525 202.932 275.125L202.298 275.485C201.561 275.914 201.049 276.244 200.79 276.427C200.396 276.704 199.851 276.609 199.574 276.215C199.296 275.821 199.391 275.277 199.785 274.999L200.22 274.71C200.564 274.487 200.965 274.241 201.421 273.976C202.717 273.222 204.19 272.47 205.816 271.767Z" fill="black"/>
<path d="M192.639 300.815C192.875 300.265 193.512 300.01 194.062 300.246C197.91 301.895 201.456 304.54 204.685 307.904C206.657 309.958 208.391 312.156 209.876 314.355C210.266 314.932 210.618 315.48 210.932 315.989L211.475 316.902C211.58 317.083 211.657 317.223 211.707 317.318C212.024 317.912 211.727 318.633 211.115 318.849L210.956 318.892L191.196 322.692L125.971 355.43C125.489 355.671 124.914 355.52 124.608 355.098L124.516 354.947C124.274 354.466 124.425 353.89 124.848 353.584L124.999 353.492L190.358 320.689L190.639 320.593L209.04 317.053L208.774 316.627C208.667 316.458 208.555 316.285 208.439 316.109L208.08 315.568C206.66 313.466 205.001 311.364 203.121 309.405C200.079 306.236 196.761 303.761 193.209 302.238C192.658 302.003 192.403 301.365 192.639 300.815Z" fill="#DD936F"/>
<path d="M78.0777 382.172C78.2563 381.638 78.8339 381.35 79.3678 381.529L80.4639 381.875L81.4283 382.164C82.1062 382.363 82.8539 382.576 83.6687 382.8C87.1663 383.759 91.1705 384.719 95.6153 385.616C123.813 391.302 153.83 391.73 182.136 383.472C182.676 383.314 183.242 383.625 183.4 384.165C183.558 384.705 183.247 385.271 182.707 385.429C154.04 393.793 123.706 393.36 95.2122 387.614C90.7203 386.708 86.6709 385.737 83.1293 384.766L81.9387 384.433C81.3689 384.272 80.8377 384.116 80.3461 383.969L78.9827 383.547C78.8752 383.513 78.7878 383.484 78.7209 383.462C78.187 383.283 77.8991 382.706 78.0777 382.172Z" fill="#253368"/>
<path d="M123.62 97.6545C124.342 97.6545 124.928 98.2403 124.928 98.9629C124.928 103.99 121.143 108.108 116.415 108.108C111.689 108.108 107.907 103.99 107.907 98.9629C107.907 98.2403 108.493 97.6545 109.215 97.6545C109.938 97.6545 110.524 98.2403 110.524 98.9629C110.524 102.592 113.187 105.492 116.415 105.492C119.646 105.492 122.311 102.592 122.311 98.9629C122.311 98.2403 122.897 97.6545 123.62 97.6545Z" fill="#253368"/>
<path d="M156.626 98.5541C157.312 98.5541 157.867 99.1098 157.867 99.7953C157.867 104.762 154.467 108.874 150.145 108.874C145.822 108.874 142.422 104.762 142.422 99.7953C142.422 99.1098 142.978 98.5541 143.663 98.5541C144.349 98.5541 144.904 99.1098 144.904 99.7953C144.904 103.484 147.308 106.391 150.145 106.391C152.981 106.391 155.385 103.484 155.385 99.7953C155.385 99.1098 155.941 98.5541 156.626 98.5541Z" fill="#253368"/>
<path d="M108.838 83.5643C113.832 81.4563 119.12 81.6676 124.119 83.2732C125.555 83.7347 126.628 84.2009 127.243 84.5253C127.882 84.8626 128.127 85.6541 127.79 86.2932C127.452 86.9323 126.661 87.1769 126.022 86.8397L125.693 86.68C125.592 86.633 125.471 86.579 125.333 86.5189C124.744 86.2629 124.068 86.0055 123.318 85.7647C118.863 84.3336 114.187 84.1468 109.855 85.9752C109.065 86.3089 108.294 86.7084 107.545 87.1766C106.932 87.5596 106.125 87.3734 105.742 86.7606C105.359 86.1479 105.545 85.3406 106.158 84.9576C107.025 84.4153 107.92 83.9518 108.838 83.5643Z" fill="#253368"/>
<path fill-rule="evenodd" clip-rule="evenodd" d="M179.358 382.153C202.328 383.683 258.487 528.09 279.672 579.714C277.049 590.192 260.528 608.814 260.528 608.814C260.528 608.814 262.413 617.108 263.573 622.092C244.176 638.428 206.4 647.618 206.4 647.618V654.764C146.159 683.352 64.7493 657.566 64.7493 657.566C64.7493 657.566 63.2164 656.036 64.2384 650.42C36.736 650.42 -22.5449 616.216 -22.5449 616.216L-14.3771 598.861L-38.8806 574.354C-38.8806 574.354 35.9991 446.296 48.7552 418.143C62.9635 386.786 78.6619 380.964 78.6619 380.964C78.6619 380.964 138.596 379.433 179.358 382.153Z" fill="#002AB2"/>
<path d="M50.0449 462.627C50.2871 462.119 50.8954 461.904 51.4036 462.146C51.861 462.364 52.0814 462.878 51.9443 463.349L51.8853 463.504L-20.2449 614.873L-19.3377 615.524L-18.5684 616.062C-16.6265 617.409 -14.3379 618.91 -11.7175 620.529C-4.22318 625.156 4.42151 629.786 14.0981 634.107C29.633 641.045 46.3122 646.506 63.9212 649.932C64.4738 650.039 64.8346 650.574 64.7271 651.127C64.6196 651.679 64.0845 652.04 63.5319 651.933C45.7633 648.476 28.9375 642.967 13.2668 635.969C3.50419 631.609 -5.21993 626.937 -12.7886 622.263C-15.1456 620.808 -17.2395 619.444 -19.0601 618.199L-19.7299 617.738C-20.1448 617.45 -20.5264 617.182 -20.8744 616.933L-21.8443 616.23C-21.9802 616.129 -22.0806 616.054 -22.145 616.005C-22.4803 615.749 -22.6185 615.318 -22.5089 614.923L-22.4466 614.756L50.0449 462.627Z" fill="black"/>
<path d="M196.596 449.355C197.068 449.17 197.594 449.361 197.844 449.784L197.917 449.933L265.546 622.741C265.72 623.185 265.562 623.691 265.166 623.958L264.691 624.27C264.306 624.521 263.851 624.811 263.33 625.137L261.997 625.96C260.838 626.667 259.558 627.423 258.166 628.219C252.601 631.403 246.368 634.586 239.615 637.557C228.901 642.27 217.901 645.995 206.869 648.36C206.319 648.478 205.777 648.127 205.659 647.577C205.541 647.026 205.891 646.484 206.442 646.366C217.328 644.033 228.199 640.352 238.794 635.691C245.479 632.751 251.648 629.6 257.154 626.45C259.079 625.348 260.784 624.326 262.248 623.409L263.345 622.711L196.019 450.676C195.834 450.204 196.025 449.678 196.447 449.428L196.596 449.355Z" fill="black"/>
<path d="M158.47 409.488C159.021 409.373 159.562 409.726 159.677 410.277L163.357 427.992C164.666 434.324 166.059 441.102 167.525 448.264L168.862 454.811C175.221 485.981 181.58 517.777 187.577 548.622L189.069 556.313C190.171 562.008 191.251 567.625 192.308 573.157L194.598 585.193C199.537 611.293 203.846 634.944 207.403 655.613C207.487 656.103 207.206 656.582 206.738 656.747C203.325 657.951 199.862 659.057 196.353 660.065C159.789 670.569 120.799 670.233 84.0865 663.364C78.4572 662.311 73.3821 661.182 68.9436 660.053L67.4521 659.667C66.9762 659.541 66.5219 659.419 66.0895 659.301L64.3111 658.802C63.9007 658.684 63.6045 658.595 63.4264 658.54C62.9825 658.402 62.6952 657.985 62.7081 657.535L62.7293 657.364L97.9719 482.797C98.0833 482.246 98.6209 481.889 99.1727 482C99.6694 482.1 100.008 482.546 99.9898 483.036L99.9702 483.201L64.9121 656.853L66.628 657.335C67.4811 657.568 68.4215 657.816 69.4463 658.077C73.8436 659.196 78.8762 660.315 84.4614 661.36C120.889 668.175 159.576 668.51 195.79 658.106C198.567 657.308 201.313 656.449 204.029 655.527L205.246 655.105L203.932 647.538C200.554 628.24 196.58 606.582 192.099 582.954L191.094 577.671C189.788 570.811 188.444 563.817 187.067 556.7C181.628 528.587 175.86 499.564 170.042 470.845L164.229 442.333L157.682 410.695C157.566 410.144 157.919 409.604 158.47 409.488Z" fill="black"/>
<path d="M129.365 412.788C129.871 412.816 130.271 413.208 130.325 413.696L130.329 413.861L121.414 582.065C121.384 582.627 120.904 583.059 120.342 583.031C119.836 583.002 119.436 582.611 119.382 582.123L119.378 581.957L128.293 413.754C128.323 413.191 128.803 412.76 129.365 412.788Z" fill="black"/>
<path d="M99.5154 387.194C99.691 386.659 100.267 386.367 100.802 386.543C101.283 386.701 101.567 387.183 101.491 387.668L101.452 387.83L67.7615 490.44C67.5859 490.975 67.0099 491.266 66.4751 491.091C65.9937 490.933 65.7097 490.45 65.7857 489.965L65.8246 489.804L99.5154 387.194Z" fill="black"/>
</svg>
